<svg xmlns="http://www.w3.org/2000/svg" width="23.996" height="19.823" viewBox="0 0 23.996 19.823">
  <path id="profile" d="M9.4,19.823a.826.826,0,1,1,0-1.652H23.17a.826.826,0,0,1,0,1.652Zm8.57-4.955a.826.826,0,1,1,0-1.652h5.2a.826.826,0,0,1,0,1.652ZM12,14.041h-.14c.014-.137.021-.274.021-.413A4.806,4.806,0,0,0,6.855,9.085a4.806,4.806,0,0,0-5.022,4.542,3.905,3.905,0,0,0,.022.413H1.714a.842.842,0,0,1-.857.825A.842.842,0,0,1,0,14.041a.8.8,0,0,1,.008-.115c-.005-.1-.008-.2-.008-.3A5.743,5.743,0,0,1,1.076,10.3a6.7,6.7,0,0,1,2.79-2.245A4.47,4.47,0,0,1,2.142,4.542,4.635,4.635,0,0,1,6.855,0a4.636,4.636,0,0,1,4.714,4.542A4.472,4.472,0,0,1,9.847,8.055,6.7,6.7,0,0,1,12.636,10.3a5.736,5.736,0,0,1,1.075,3.327c0,.1,0,.2-.008.3a.8.8,0,0,1,.008.114.857.857,0,0,1-1.714,0Zm-8.141-9.5a2.95,2.95,0,0,0,3,2.891,2.95,2.95,0,0,0,3-2.891,2.949,2.949,0,0,0-3-2.89A2.949,2.949,0,0,0,3.857,4.542ZM17.966,9.911a.826.826,0,1,1,0-1.651h5.2a.826.826,0,1,1,0,1.651Z" fill="#fff"/>
</svg>