<svg xmlns="http://www.w3.org/2000/svg" width="28.67" height="25.812" viewBox="0 0 28.67 25.812">
  <path id="wallet" d="M2082.01,1696.88a1.671,1.671,0,0,1-1.67-1.67V1676.54h.01a2.333,2.333,0,0,1,2.33-2.33c.05,0,.106,0,.18.007l.633-.112.486-.085,16.6-2.926a1.692,1.692,0,0,1,.292-.026,1.663,1.663,0,0,1,1.639,1.377l.1.541-19.6,2.889c-.007,0-.663.049-.666.668,0,.183,0,.283,0,.337l0,0h20.947l2.05,0a1.672,1.672,0,0,1,1.669,1.67v3.659h.33a1.672,1.672,0,0,1,1.67,1.67v5.99a1.672,1.672,0,0,1-1.67,1.67h-.33v3.67a1.671,1.671,0,0,1-1.669,1.67Zm.33-2h22.67v-3.34h-6.33a1.673,1.673,0,0,1-1.67-1.67v-5.99a1.673,1.673,0,0,1,1.67-1.67h6.33v-3.33h-22.67Zm16.67-5.34h8v-5.331h-8Zm2.01-2.67a1.33,1.33,0,1,1,1.329,1.33A1.33,1.33,0,0,1,2101.02,1686.87Z" transform="translate(-2080.34 -1671.068)" fill="#37c8c3"/>
</svg>